<?xml version="1.0" standalone="no"?>
<!DOCTYPE svg PUBLIC "-//W3C//DTD SVG 20010904//EN"
 "http://www.w3.org/TR/2001/REC-SVG-20010904/DTD/svg10.dtd">
<svg version="1.0" xmlns="http://www.w3.org/2000/svg"
 width="2048.000000pt" height="2048.000000pt" viewBox="0 0 2048.000000 2048.000000"
 preserveAspectRatio="xMidYMid meet">

<g transform="translate(0.000000,2048.000000) scale(0.100000,-0.100000)"
fill="#000000" stroke="none">
<path d="M17021 20134 c-123 -33 -248 -123 -322 -233 -39 -59 -68 -142 -82
-232 -21 -147 33 -313 139 -428 213 -231 565 -240 784 -21 109 109 160 232
160 385 0 153 -51 277 -160 385 -108 109 -235 160 -390 159 -41 0 -99 -7 -129
-15z m230 -433 c35 -34 39 -44 39 -87 0 -61 -15 -92 -60 -122 -42 -28 -111
-27 -153 4 -36 26 -60 89 -52 132 14 75 59 111 139 112 43 0 53 -4 87 -39z"/>
<path d="M16716 17919 c-111 -530 -315 -1096 -553 -1534 -538 -991 -1351
-1813 -2926 -2959 -225 -164 -322 -271 -375 -416 -35 -93 -35 -217 1 -318 72
-205 276 -390 475 -431 260 -54 529 60 870 369 96 86 420 435 609 655 862
1005 1452 2042 1753 3086 154 532 228 1113 190 1488 -16 150 -23 160 -44 60z"/>
<path d="M5225 17758 c-524 -39 -1027 -197 -1402 -440 -561 -362 -905 -911
-1014 -1614 -27 -176 -37 -577 -20 -775 75 -868 429 -1844 1049 -2899 195
-332 362 -551 602 -790 182 -183 316 -293 535 -439 481 -320 1039 -515 1715
-598 180 -22 787 -25 970 -5 768 85 1406 291 1885 609 145 97 324 265 389 366
136 209 125 411 -30 570 -77 79 -181 106 -336 87 -221 -26 -414 -88 -1088
-348 -794 -306 -1181 -422 -1645 -492 -179 -27 -524 -38 -686 -21 -549 58
-987 306 -1323 751 -390 516 -647 1314 -765 2375 -56 504 -91 1325 -72 1690
37 705 265 1115 744 1340 119 56 231 93 451 150 267 69 250 62 254 115 2 24
-2 74 -8 110 -12 68 -74 237 -94 256 -7 6 -45 7 -111 2z m-1078 -667 c-248
-259 -389 -582 -452 -1041 -43 -309 -22 -1243 40 -1865 109 -1072 348 -1903
711 -2467 24 -38 42 -68 39 -68 -11 0 -169 212 -250 335 -202 308 -483 836
-655 1230 -243 557 -404 1111 -467 1600 -22 176 -25 630 -5 775 102 724 445
1238 1035 1551 51 27 94 49 96 49 2 0 -39 -45 -92 -99z"/>
<path d="M10730 16080 c-687 -84 -1198 -570 -1296 -1233 -22 -149 -15 -409 15
-549 123 -571 558 -993 1155 -1120 145 -30 371 -30 514 0 544 118 949 426
1127 857 128 308 139 718 29 1051 -171 520 -590 888 -1114 980 -107 18 -331
26 -430 14z"/>
<path d="M12500 8096 c-149 -32 -270 -102 -374 -218 -122 -136 -189 -263 -209
-400 -10 -67 -9 -92 6 -161 35 -169 135 -324 333 -517 137 -132 240 -218 554
-460 266 -205 392 -308 516 -421 259 -237 414 -468 454 -677 16 -79 7 -308
-15 -412 -62 -287 -221 -599 -457 -899 -104 -133 -417 -448 -568 -573 -591
-487 -1361 -921 -2276 -1282 -277 -110 -272 -107 -204 -100 454 47 1159 188
1640 328 1211 352 2113 931 2602 1670 307 465 458 1001 419 1491 -54 664 -413
1377 -981 1946 -363 364 -747 601 -1093 675 -103 22 -268 26 -347 10z"/>
<path d="M10900 7956 c-416 -120 -805 -830 -1174 -2137 -31 -108 -112 -423
-180 -700 -76 -307 -150 -581 -190 -701 -341 -1035 -884 -1897 -1726 -2738
-428 -428 -949 -864 -1480 -1238 -74 -52 -139 -99 -145 -105 -6 -6 16 -8 65
-4 226 16 681 187 1080 407 1274 700 2431 1835 3382 3320 601 939 996 1836
1125 2555 23 134 26 176 27 385 1 263 -12 343 -75 496 -82 196 -260 377 -437
444 -71 27 -207 35 -272 16z"/>
</g>
</svg>
