<?xml version="1.0" standalone="no"?>
<!DOCTYPE svg PUBLIC "-//W3C//DTD SVG 20010904//EN"
 "http://www.w3.org/TR/2001/REC-SVG-20010904/DTD/svg10.dtd">
<svg version="1.0" xmlns="http://www.w3.org/2000/svg"
 width="216.000000pt" height="233.000000pt" viewBox="0 0 216.000000 233.000000"
 preserveAspectRatio="xMidYMid meet">

<g transform="translate(0.000000,233.000000) scale(0.100000,-0.100000)"
fill="#000000" stroke="none">
<path d="M1195 2031 c-164 -139 -202 -177 -213 -208 -16 -48 -36 -63 -75 -56
-42 6 -82 -33 -75 -71 5 -24 2 -26 -27 -26 -36 0 -65 -26 -65 -58 0 -12 -15
-32 -36 -48 l-35 -27 20 -20 c16 -17 23 -18 35 -8 14 12 16 -3 18 -126 l3
-138 37 -3 c21 -2 88 4 150 12 61 9 113 15 114 13 1 -1 -12 -56 -31 -122 -22
-80 -60 -178 -114 -292 -44 -95 -81 -184 -81 -199 0 -27 129 -272 154 -293 24
-20 67 -9 90 22 l21 29 -53 98 -52 99 69 148 c40 87 75 149 84 151 12 2 41
-47 110 -185 89 -177 95 -193 106 -283 7 -52 17 -100 23 -108 21 -25 46 -32
72 -22 47 17 49 40 23 230 l-24 175 -67 132 c-36 73 -66 141 -66 151 0 11 18
81 40 156 22 75 40 147 40 161 0 43 -40 71 -187 130 -79 32 -147 63 -152 69
-5 6 -27 53 -49 105 l-40 95 23 18 c13 10 36 18 52 18 23 0 72 36 236 175 114
97 207 180 207 185 0 11 -69 90 -79 90 -3 0 -96 -76 -206 -169z m-245 -633 c0
-4 -18 -8 -40 -8 l-40 0 0 103 1 102 39 -94 c22 -52 40 -98 40 -103z"/>
<path d="M1255 1741 c-22 -10 -48 -32 -57 -49 -21 -35 -23 -106 -5 -142 19
-38 74 -70 121 -70 151 0 189 207 49 266 -42 18 -60 17 -108 -5z"/>
<path d="M0 85 l0 -85 1080 0 1080 0 0 85 0 85 -1080 0 -1080 0 0 -85z m218
13 c14 5 15 4 2 -10 -9 -10 -17 -12 -21 -6 -4 6 -9 5 -12 -3 -3 -8 -6 -3 -6
11 -1 18 2 21 10 13 6 -6 19 -9 27 -5z m77 2 c-17 -7 -17 -9 -2 -9 19 -1 23
-26 6 -37 -6 -3 -16 -1 -22 6 -9 10 -9 11 0 6 6 -3 14 -2 17 3 3 5 -1 11 -9
15 -23 8 -18 26 8 25 21 0 21 -1 2 -9z m32 -27 c-3 -10 -5 -4 -5 12 0 17 2 24
5 18 2 -7 2 -21 0 -30z m112 21 c4 3 7 -3 7 -13 0 -10 -6 -18 -13 -18 -8 0
-13 11 -12 26 0 14 3 20 6 13 2 -6 8 -10 12 -8z m-41 -5 c-9 -6 -8 -12 3 -25
13 -16 12 -16 -8 -6 -14 8 -24 9 -28 2 -9 -15 -25 -2 -25 20 0 14 7 18 35 17
19 -1 29 -4 23 -8z m1222 -23 c0 -10 -30 0 -34 11 -4 11 -1 11 14 3 11 -6 20
-12 20 -14z m170 3 c0 -5 -4 -9 -10 -9 -5 0 -10 7 -10 16 0 8 5 12 10 9 6 -3
10 -10 10 -16z m131 -2 c-10 -9 -11 -8 -5 6 3 10 9 15 12 12 3 -3 0 -11 -7
-18z m65 14 c11 9 14 8 14 -6 0 -19 -32 -17 -36 3 -1 7 0 8 3 2 3 -8 9 -7 19
1z m50 0 c11 9 14 8 14 -5 0 -9 -8 -16 -20 -16 -13 0 -20 6 -19 18 0 11 2 12
6 4 4 -10 8 -10 19 -1z m62 -16 c-3 -3 -9 2 -12 12 -6 14 -5 15 5 6 7 -7 10
-15 7 -18z m-1974 -1 c3 -8 2 -12 -4 -9 -6 3 -10 10 -10 16 0 14 7 11 14 -7z
m126 12 c0 -2 -8 -10 -17 -17 -16 -13 -17 -12 -4 4 13 16 21 21 21 13z m1470
-6 c0 -5 -5 -10 -11 -10 -5 0 -7 5 -4 10 3 6 8 10 11 10 2 0 4 -4 4 -10z m35
0 c3 -5 -1 -10 -9 -10 -9 0 -16 5 -16 10 0 6 4 10 9 10 6 0 13 -4 16 -10z m95
0 c0 -5 -4 -10 -10 -10 -5 0 -10 5 -10 10 0 6 5 10 10 10 6 0 10 -4 10 -10z
m40 0 c0 -5 -4 -10 -10 -10 -5 0 -10 5 -10 10 0 6 5 10 10 10 6 0 10 -4 10
-10z"/>
<path d="M350 74 c0 -8 5 -12 10 -9 6 3 10 10 10 16 0 5 -4 9 -10 9 -5 0 -10
-7 -10 -16z"/>
</g>
</svg>
