<?xml version="1.0" standalone="no"?>
<!DOCTYPE svg PUBLIC "-//W3C//DTD SVG 20010904//EN"
 "http://www.w3.org/TR/2001/REC-SVG-20010904/DTD/svg10.dtd">
<svg version="1.0" xmlns="http://www.w3.org/2000/svg"
 width="772.000000pt" height="1300.000000pt" viewBox="0 0 772.000000 1300.000000"
 preserveAspectRatio="xMidYMid meet">

<g transform="translate(0.000000,1300.000000) scale(0.100000,-0.100000)"
fill="#000000" stroke="none">
<path d="M5664 12975 c-84 -18 -197 -68 -276 -121 -77 -53 -207 -185 -259
-264 -188 -286 -238 -648 -139 -1010 46 -169 175 -374 308 -488 104 -90 260
-169 373 -188 19 -4 76 -9 126 -11 208 -11 401 65 573 224 441 410 452 1194
24 1628 -113 116 -281 207 -430 234 -77 15 -225 13 -300 -4z"/>
<path d="M4643 10440 c-150 -49 -272 -199 -317 -391 -55 -235 -217 -1385 -306
-2179 -45 -405 -27 -348 -176 -558 -71 -101 -136 -193 -144 -205 -41 -59 -316
-452 -365 -522 -88 -124 -303 -430 -448 -639 -73 -104 -144 -205 -158 -225
-14 -20 -52 -74 -85 -121 -33 -47 -76 -107 -95 -135 -20 -27 -114 -162 -210
-300 -97 -137 -294 -419 -439 -625 -234 -333 -382 -544 -515 -735 -70 -101
-287 -410 -290 -413 -1 -2 -123 88 -270 199 -147 110 -281 206 -297 211 -40
14 -126 4 -183 -21 -98 -43 -214 -158 -274 -271 -41 -77 -61 -159 -61 -250 0
-99 21 -167 62 -206 28 -26 1203 -908 1352 -1014 43 -31 54 -35 110 -34 94 2
180 48 283 151 68 68 90 99 127 175 24 51 49 120 56 153 23 110 -5 221 -71
281 -25 22 -392 319 -406 328 -1 1 100 163 224 361 124 198 237 380 252 404
14 24 42 69 62 100 21 31 79 124 130 206 50 83 107 173 124 200 26 41 200 318
474 758 20 32 52 84 72 115 300 474 450 722 443 733 -4 7 -3 9 4 5 6 -3 54 64
118 166 59 95 117 189 129 208 12 19 51 80 85 135 35 55 73 116 86 135 13 19
104 119 201 221 l178 186 70 13 c365 63 754 196 1146 390 90 45 166 86 167 91
2 5 9 9 14 9 18 0 304 175 402 244 126 90 211 165 366 318 593 587 778 923
876 1583 11 78 18 183 18 300 l1 180 -35 64 c-71 131 -176 198 -326 208 -158
10 -281 -34 -384 -137 -99 -99 -135 -180 -170 -390 -60 -357 -173 -703 -345
-1055 -174 -355 -359 -610 -590 -812 -147 -128 -346 -274 -560 -409 -119 -75
-454 -264 -469 -264 -2 0 12 39 31 88 106 267 224 618 382 1137 92 303 115
379 171 550 66 203 122 358 215 590 77 191 95 283 76 395 -22 137 -108 252
-228 307 -78 36 -203 41 -290 13z m1898 -387 c13 -16 12 -17 -3 -4 -10 7 -18
15 -18 17 0 8 8 3 21 -13z m540 -540 c13 -16 12 -17 -3 -4 -10 7 -18 15 -18
17 0 8 8 3 21 -13z m-3916 -3393 c10 -11 16 -20 13 -20 -3 0 -13 9 -23 20 -10
11 -16 20 -13 20 3 0 13 -9 23 -20z m80 -80 c10 -11 16 -20 13 -20 -3 0 -13 9
-23 20 -10 11 -16 20 -13 20 3 0 13 -9 23 -20z"/>
<path d="M4875 6748 c-109 -21 -242 -108 -314 -207 -89 -122 -136 -274 -151
-486 -27 -366 -87 -878 -165 -1385 -82 -536 -116 -767 -140 -950 -14 -107 -30
-220 -35 -250 -35 -208 -115 -1034 -139 -1435 -24 -393 -44 -1052 -31 -1039
11 13 213 553 310 829 21 61 66 189 99 285 107 305 273 803 370 1112 59 189
126 404 181 588 34 113 74 248 90 300 16 52 54 183 85 290 31 107 71 245 90
305 19 61 72 238 119 395 47 157 125 417 175 578 96 311 117 416 106 532 -9
103 -24 159 -66 245 -105 220 -343 339 -584 293z"/>
<path d="M6513 6746 c-200 -49 -364 -222 -408 -431 -19 -89 -19 -223 -1 -317
16 -78 22 -98 140 -483 101 -325 210 -689 311 -1035 204 -697 385 -1281 396
-1274 4 2 5 -4 2 -15 -4 -17 257 -814 392 -1196 86 -244 152 -427 164 -455 5
-14 54 -142 107 -285 53 -143 98 -262 101 -265 7 -6 -5 498 -17 775 -15 320
-50 771 -85 1115 -32 308 -157 1245 -195 1460 -41 236 -154 1059 -181 1325 -8
81 -17 126 -28 139 -9 11 -10 16 -3 12 15 -9 15 4 -3 221 -16 205 -33 278 -91
400 -114 240 -361 367 -601 309z m227 -19 c0 -2 -12 -14 -27 -28 l-28 -24 24
28 c23 25 31 32 31 24z m-140 -141 c0 -2 -8 -10 -17 -17 -16 -13 -17 -12 -4 4
13 16 21 21 21 13z m-69 -69 c-6 -8 -9 -16 -6 -19 3 -2 -2 -5 -10 -5 -13 0
-13 3 2 19 19 21 31 25 14 5z m-91 -91 c0 -2 -8 -10 -17 -17 -16 -13 -17 -12
-4 4 13 16 21 21 21 13z m-80 -80 c0 -2 -8 -10 -17 -17 -16 -13 -17 -12 -4 4
13 16 21 21 21 13z m-160 -160 c0 -2 -8 -10 -17 -17 -16 -13 -17 -12 -4 4 13
16 21 21 21 13z m1290 -2449 c0 -2 -10 -12 -22 -23 l-23 -19 19 23 c18 21 26
27 26 19z"/>
<path d="M5735 1343 c-357 -80 -587 -397 -544 -747 11 -89 53 -207 100 -281
55 -87 164 -185 259 -233 114 -56 183 -73 308 -73 157 1 289 44 402 131 264
204 343 541 198 840 -33 68 -58 102 -127 171 -138 139 -287 200 -480 198 -53
-1 -105 -3 -116 -6z"/>
</g>
</svg>
