<?xml version="1.0" standalone="no"?>
<!DOCTYPE svg PUBLIC "-//W3C//DTD SVG 20010904//EN"
 "http://www.w3.org/TR/2001/REC-SVG-20010904/DTD/svg10.dtd">
<svg version="1.0" xmlns="http://www.w3.org/2000/svg"
 width="1024.000000pt" height="1024.000000pt" viewBox="0 0 1024.000000 1024.000000"
 preserveAspectRatio="xMidYMid meet">

<g transform="translate(0.000000,1024.000000) scale(0.100000,-0.100000)"
fill="#000000" stroke="none">
<path d="M5848 8540 c-328 -56 -583 -338 -605 -672 -20 -296 139 -574 401
-703 124 -61 197 -79 331 -79 84 0 129 6 190 23 253 71 445 263 516 516 29
101 31 267 6 365 -58 222 -228 421 -433 504 -121 49 -279 67 -406 46z"/>
<path d="M892 7770 c-157 -17 -303 -89 -410 -203 -99 -106 -137 -228 -129
-412 5 -134 28 -222 80 -315 166 -299 466 -499 795 -530 200 -19 342 17 509
127 l53 35 37 -23 c21 -13 97 -62 168 -109 72 -48 191 -120 265 -161 74 -40
250 -143 390 -228 335 -203 370 -221 431 -221 26 0 60 5 74 12 22 10 25 17 25
68 l0 57 73 -14 c166 -32 333 -45 632 -50 366 -6 468 1 779 57 512 91 644 138
782 275 88 87 109 138 102 254 -8 123 -55 199 -153 242 -42 19 -60 21 -127 16
-106 -9 -219 -48 -439 -155 -210 -101 -272 -126 -454 -181 -357 -107 -666
-147 -1055 -138 -242 6 -371 21 -603 67 -185 38 -276 81 -639 308 -145 90
-167 107 -163 125 2 12 12 58 21 101 80 377 -231 821 -672 959 -69 22 -246 50
-286 46 -7 -1 -46 -5 -86 -9z m268 -226 c91 -20 232 -92 313 -159 219 -181
321 -463 234 -645 -75 -159 -214 -228 -432 -217 -248 13 -485 152 -624 367
-57 87 -82 161 -88 256 -9 137 22 229 102 303 116 107 289 140 495 95z"/>
<path d="M7502 6835 c-219 -42 -329 -115 -340 -226 -9 -94 87 -243 196 -302
74 -40 257 -89 562 -151 311 -62 409 -89 540 -145 132 -57 196 -98 271 -171
146 -143 185 -313 144 -624 -36 -276 -132 -536 -278 -754 -49 -73 -53 -82 -33
-82 48 1 110 44 248 173 171 160 212 205 283 312 104 157 174 324 217 516 19
87 23 132 22 274 -1 323 -52 455 -258 660 -226 225 -543 382 -996 492 -133 32
-160 35 -325 39 -126 2 -202 -1 -253 -11z"/>
<path d="M1248 5663 c-156 -59 -246 -197 -236 -361 6 -96 34 -159 103 -227 79
-79 130 -100 250 -100 82 0 109 4 147 22 66 30 139 102 174 170 26 53 29 67
29 158 0 91 -3 105 -29 158 -35 69 -108 140 -173 169 -67 29 -201 35 -265 11z
m175 -197 c104 -43 127 -180 42 -255 -61 -53 -139 -53 -201 1 -128 112 2 320
159 254z"/>
<path d="M7234 4899 c-169 -53 -254 -230 -254 -527 0 -168 13 -282 55 -487 95
-466 285 -998 486 -1361 139 -250 423 -443 815 -554 150 -42 1280 -296 1382
-311 46 -6 104 -9 129 -5 49 6 120 44 106 56 -9 9 -191 71 -538 183 -269 87
-424 147 -590 227 -504 243 -744 483 -849 846 -62 218 -87 418 -106 849 -27
616 -59 789 -180 951 -97 130 -290 186 -456 133z"/>
<path d="M6392 4854 c-163 -36 -406 -164 -677 -357 -163 -116 -1203 -938
-3260 -2576 -178 -141 -324 -249 -378 -279 l-88 -49 27 -18 c26 -17 29 -16
141 25 199 72 355 150 803 397 239 132 755 415 1145 628 1858 1014 2534 1400
2670 1526 89 83 155 215 155 313 0 91 -72 259 -134 314 -97 85 -241 112 -404
76z"/>
</g>
</svg>
