<?xml version="1.0" standalone="no"?>
<!DOCTYPE svg PUBLIC "-//W3C//DTD SVG 20010904//EN"
 "http://www.w3.org/TR/2001/REC-SVG-20010904/DTD/svg10.dtd">
<svg version="1.0" xmlns="http://www.w3.org/2000/svg"
 width="299.000000pt" height="169.000000pt" viewBox="0 0 299.000000 169.000000"
 preserveAspectRatio="xMidYMid meet">

<g transform="translate(0.000000,169.000000) scale(0.100000,-0.100000)"
fill="#000000" stroke="none">
<path d="M1907 1572 c-12 -13 -18 -34 -17 -63 1 -24 -2 -59 -6 -77 -4 -19 -2
-38 5 -46 10 -11 -10 -66 -94 -264 l-107 -250 -71 20 c-40 10 -75 22 -79 26
-4 4 -12 52 -18 107 -14 123 -22 145 -54 145 -36 0 -49 -31 -44 -111 l4 -69
-39 38 c-21 20 -54 60 -72 89 -37 57 -66 77 -95 68 -33 -10 -42 -40 -26 -78
25 -62 132 -164 210 -202 46 -22 83 -49 105 -76 18 -22 52 -54 75 -70 23 -17
41 -38 41 -49 0 -11 4 -20 10 -21 5 0 74 150 153 335 115 269 148 336 163 336
10 0 26 12 36 26 10 15 33 41 51 58 62 60 27 132 -69 143 -35 4 -48 1 -62 -15z
m116 -29 c12 -10 23 -26 25 -36 4 -24 -17 -49 -35 -43 -8 3 -11 1 -8 -4 3 -6
1 -10 -4 -10 -6 0 -11 -6 -11 -12 0 -7 -9 -24 -19 -38 -17 -21 -22 -23 -45
-12 -29 13 -31 19 -14 59 6 15 10 33 8 38 -11 38 -8 65 8 75 22 13 68 5 95
-17z m-386 -693 l42 0 -21 -50 -21 -51 -26 25 c-14 14 -35 40 -45 57 l-19 32
24 -6 c13 -4 43 -7 66 -7z"/>
<path d="M1977 1535 c3 -8 9 -12 14 -9 12 7 11 11 -5 17 -10 4 -13 1 -9 -8z"/>
<path d="M2015 1520 c3 -5 8 -10 11 -10 2 0 4 5 4 10 0 6 -5 10 -11 10 -5 0
-7 -4 -4 -10z"/>
<path d="M1951 1471 c-8 -5 -9 -11 -3 -15 5 -3 12 1 16 9 6 17 6 18 -13 6z"/>
<path d="M1930 1426 c0 -2 7 -7 16 -10 8 -3 12 -2 9 4 -6 10 -25 14 -25 6z"/>
<path d="M1334 1392 c-94 -59 -52 -202 59 -202 66 1 107 44 107 114 0 80 -97
131 -166 88z"/>
<path d="M1176 811 c-20 -22 -21 -94 -1 -176 8 -33 15 -75 15 -93 0 -30 -5
-35 -47 -54 -37 -16 -60 -19 -117 -15 -39 2 -80 8 -91 12 -14 5 -11 -1 10 -19
61 -53 234 -79 288 -43 46 30 62 72 62 167 -1 122 -31 200 -91 233 -6 4 -19
-2 -28 -12z"/>
<path d="M1290 810 c-32 -32 -19 -72 60 -180 58 -80 80 -143 80 -231 0 -67
-33 -197 -67 -262 -30 -59 -4 -35 47 43 95 144 122 288 81 418 -55 171 -146
267 -201 212z"/>
</g>
</svg>
