<?xml version="1.0" standalone="no"?>
<!DOCTYPE svg PUBLIC "-//W3C//DTD SVG 20010904//EN"
 "http://www.w3.org/TR/2001/REC-SVG-20010904/DTD/svg10.dtd">
<svg version="1.0" xmlns="http://www.w3.org/2000/svg"
 width="640.000000pt" height="640.000000pt" viewBox="0 0 640.000000 640.000000"
 preserveAspectRatio="xMidYMid meet">

<g transform="translate(0.000000,640.000000) scale(0.100000,-0.100000)"
fill="#000000" stroke="none">
<path d="M1448 6042 c-83 -74 -545 -489 -741 -665 l-197 -177 -103 0 c-110 0
-310 -14 -370 -25 l-37 -7 0 -154 0 -153 65 -3 66 -3 -65 -55 -66 -55 0 -84 0
-83 71 63 c138 124 244 209 261 209 9 0 90 -19 180 -41 139 -36 179 -42 273
-43 103 -1 113 1 161 27 28 16 63 40 78 54 24 22 27 30 21 61 -11 60 -53 130
-96 161 -41 30 -141 72 -216 91 -24 6 -43 14 -43 18 0 4 38 45 85 92 79 79 85
87 85 126 l0 42 243 218 c391 352 433 397 397 419 -5 3 -29 -11 -52 -33z"/>
<path d="M3469 5437 c-107 -95 -295 -264 -418 -375 -209 -188 -226 -202 -270
-207 -119 -15 -218 -66 -279 -142 -63 -80 -82 -137 -82 -248 0 -90 3 -106 30
-163 39 -82 112 -155 198 -195 60 -28 76 -32 152 -31 97 1 149 17 228 71 106
72 166 187 165 318 0 134 -61 250 -168 322 l-56 36 31 32 c21 21 32 45 36 77
6 46 9 49 273 287 146 132 292 265 324 296 55 52 68 83 41 92 -6 2 -99 -74
-205 -170z"/>
<path d="M1445 5551 c-110 -29 -215 -114 -265 -214 -28 -56 -30 -68 -30 -166
0 -91 4 -113 25 -159 33 -71 117 -157 190 -196 56 -29 67 -31 165 -31 93 0
112 3 162 27 159 74 258 256 229 417 -34 184 -180 314 -366 325 -44 3 -93 2
-110 -3z"/>
<path d="M2271 4937 l-482 -433 -217 -12 c-234 -13 -379 -37 -552 -92 l-95
-30 -210 101 c-115 56 -270 130 -342 165 l-133 63 -14 -47 c-7 -26 -11 -51 -9
-55 3 -4 120 -66 261 -137 141 -70 265 -135 276 -142 17 -13 11 -19 -85 -78
-57 -35 -150 -101 -207 -147 -82 -67 -107 -83 -124 -77 -24 7 -87 36 -240 108
l-98 45 0 -63 0 -62 143 -69 c380 -181 534 -253 559 -259 20 -5 33 -1 48 14
42 42 31 52 -177 161 -68 35 -123 67 -123 70 0 8 172 88 270 127 108 42 215
66 295 67 64 0 79 -4 173 -50 l104 -49 -39 -36 c-21 -19 -186 -169 -366 -333
-271 -246 -326 -301 -318 -315 5 -9 51 -61 102 -115 75 -81 94 -96 105 -85 7
7 96 127 199 267 127 174 184 259 179 270 -18 45 -15 49 116 165 73 64 136
116 141 116 4 0 273 -128 596 -284 572 -276 692 -330 720 -319 23 9 28 53 7
73 -11 10 -80 50 -153 89 -74 39 -139 75 -143 79 -16 16 275 142 408 178 62
17 106 19 409 18 l340 -2 184 -46 c266 -67 365 -64 468 13 56 43 64 70 38 138
-24 63 -59 100 -129 135 -173 88 -366 118 -644 100 -436 -28 -781 -160 -1086
-415 l-89 -74 -171 82 c-262 126 -640 315 -648 323 -5 5 10 23 33 42 l42 33
176 -43 c231 -57 353 -65 433 -27 29 14 68 38 87 54 31 26 33 32 27 69 -4 22
-20 63 -37 92 -36 64 -94 99 -233 144 l-100 32 92 86 c89 83 92 87 92 130 l0
45 253 227 c388 348 413 373 398 392 -8 9 -17 16 -21 16 -4 0 -224 -195 -489
-433z"/>
<path d="M3569 5067 c-102 -43 -173 -110 -218 -206 -23 -50 -26 -68 -26 -161
1 -100 2 -108 34 -167 42 -77 123 -156 198 -191 78 -37 208 -38 296 -3 81 32
168 115 209 199 31 62 33 74 33 167 0 90 -3 106 -29 158 -37 76 -116 156 -191
192 -50 25 -74 30 -155 33 -82 2 -103 -1 -151 -21z"/>
<path d="M4649 4501 c-96 -37 -165 -102 -217 -203 -25 -48 -27 -63 -27 -163 0
-101 3 -114 29 -164 83 -159 253 -252 407 -223 160 30 269 123 319 273 61 178
-25 375 -202 464 -67 33 -76 35 -167 35 -68 -1 -109 -6 -142 -19z"/>
<path d="M1235 3366 c-111 -53 -145 -118 -174 -339 -34 -253 -131 -506 -260
-678 -161 -213 -499 -460 -737 -539 l-64 -22 0 -45 0 -45 63 7 c34 4 107 15
162 26 298 59 696 251 886 426 168 156 348 444 410 656 13 42 27 76 31 75 13
-5 244 -254 303 -327 114 -141 165 -258 165 -377 0 -116 -21 -257 -51 -348
-37 -110 -155 -369 -177 -389 -18 -16 13 -24 -872 232 -173 50 -319 90 -324
88 -7 -2 -38 -100 -33 -103 16 -6 446 -131 757 -220 223 -64 408 -119 413
-123 10 -10 -20 -81 -38 -87 -16 -6 -38 0 -860 231 -758 214 -806 227 -822
221 -8 -4 -13 -23 -13 -56 0 -27 2 -50 5 -50 3 0 769 -215 1595 -448 24 -7
-205 -10 -722 -11 l-758 -1 0 -55 0 -55 1363 0 1363 0 359 -100 c198 -56 369
-104 380 -108 11 -4 -317 -9 -730 -12 l-750 -5 -3 -53 -3 -52 1993 2 1993 3
55 26 c74 34 124 79 151 136 l22 46 -22 19 c-35 27 -48 23 -111 -36 -36 -32
-75 -58 -101 -66 -35 -11 -235 -14 -957 -17 l-913 -4 36 46 c39 52 39 51 24
94 -16 46 -17 45 -137 -41 -43 -32 -116 -48 -213 -48 -72 0 -99 6 -99 22 0 6
25 39 55 74 50 57 60 63 103 69 107 14 192 37 236 65 47 30 106 109 106 141 0
19 -35 49 -57 49 -6 0 -39 -25 -72 -56 -43 -39 -70 -57 -98 -61 l-37 -6 31 39
c101 128 233 375 289 539 39 114 45 300 15 430 -29 124 -121 305 -210 415
-102 126 -326 341 -386 370 -65 31 -148 37 -213 16 l-51 -17 -41 45 c-94 102
-218 114 -326 31 -69 -53 -95 -119 -119 -309 -26 -197 -66 -329 -151 -499 -97
-191 -258 -368 -479 -522 -90 -63 -271 -165 -293 -165 -6 0 17 44 52 98 88
136 139 231 184 347 59 150 76 237 69 364 -13 238 -105 436 -309 661 -254 281
-369 346 -522 294 l-48 -17 -51 51 c-29 27 -66 57 -84 66 -46 23 -119 20 -178
-8z m2606 -1136 c38 -47 88 -122 111 -168 42 -82 42 -84 46 -205 7 -208 -22
-324 -148 -599 l-63 -138 -461 0 -461 0 -435 124 c-416 119 -433 124 -385 131
242 32 439 93 664 206 86 42 192 101 235 130 234 155 463 466 555 754 12 39
25 77 28 85 6 18 206 -186 314 -320z m-1817 -986 c122 -34 129 -39 80 -53 -86
-25 -274 -26 -274 -3 0 5 16 27 36 51 24 27 42 40 52 36 8 -3 56 -17 106 -31z
m1608 -243 l97 -6 -21 -47 c-12 -29 -27 -48 -37 -48 -33 0 -355 97 -341 103
19 7 178 6 302 -2z"/>
</g>
</svg>
