<?xml version="1.0" standalone="no"?>
<!DOCTYPE svg PUBLIC "-//W3C//DTD SVG 20010904//EN"
 "http://www.w3.org/TR/2001/REC-SVG-20010904/DTD/svg10.dtd">
<svg version="1.0" xmlns="http://www.w3.org/2000/svg"
 width="256.000000pt" height="256.000000pt" viewBox="0 0 256.000000 256.000000"
 preserveAspectRatio="xMidYMid meet">

<g transform="translate(0.000000,256.000000) scale(0.100000,-0.100000)"
fill="#000000" stroke="none">
<path d="M462 1887 c-12 -13 -22 -32 -22 -43 0 -31 272 -654 286 -654 10 0 10
8 -2 35 -8 19 -13 35 -11 35 23 0 106 -38 119 -54 9 -11 20 -18 23 -14 11 10
-283 681 -306 701 -29 24 -61 21 -87 -6z m68 -7 c10 -5 24 -26 30 -45 11 -33
9 -39 -15 -70 -14 -19 -29 -35 -33 -35 -6 0 -26 42 -47 102 -4 10 2 25 14 37
24 24 26 24 51 11z m110 -240 c0 -8 -14 -31 -30 -50 l-29 -35 -21 50 c-41 95
-41 89 -7 130 l31 38 28 -59 c15 -32 28 -66 28 -74z m79 -175 c0 -11 -58 -79
-64 -73 -1 1 -16 33 -33 70 l-30 67 31 41 32 41 32 -68 c17 -37 32 -72 32 -78z
m53 -117 c20 -46 34 -85 32 -87 -1 -1 -26 5 -54 14 -40 13 -55 24 -67 50 -15
32 -15 34 13 69 16 20 32 36 35 36 3 0 22 -37 41 -82z"/>
<path d="M1439 1851 c-37 -37 -38 -78 -4 -115 49 -53 145 -19 145 53 0 43 -9
60 -41 76 -42 22 -67 18 -100 -14z"/>
<path d="M1368 1680 c-32 -25 -58 -115 -58 -204 0 -63 2 -69 34 -102 31 -32
35 -43 41 -110 l7 -74 45 0 45 0 -7 73 c-3 41 -10 92 -15 113 -11 46 -13 119
-4 163 l7 31 38 -34 c70 -64 139 -84 147 -44 2 12 -12 25 -45 42 -51 25 -106
80 -135 134 -20 38 -61 43 -100 12z"/>
<path d="M1683 1454 l-83 -46 0 -109 0 -109 110 0 110 0 0 85 c0 78 -2 85 -20
85 -18 0 -20 7 -20 70 0 39 -3 70 -7 70 -5 -1 -45 -21 -90 -46z"/>
<path d="M443 1370 c-113 -30 -163 -64 -177 -122 -13 -58 -12 -58 205 -58 109
0 199 2 199 4 0 2 -18 46 -39 97 l-39 94 -38 2 c-22 1 -71 -6 -111 -17z"/>
<path d="M2309 1301 c-70 -54 -218 -106 -388 -135 -82 -14 -203 -16 -883 -16
l-789 0 -24 -25 c-34 -33 -34 -84 1 -119 l27 -26 820 0 819 0 123 25 c214 43
386 120 421 187 42 81 -55 165 -127 109z"/>
<path d="M2327 1069 c-61 -32 -208 -76 -322 -99 -101 -19 -141 -20 -896 -20
l-789 0 0 -23 c0 -13 9 -32 21 -43 20 -18 50 -19 772 -22 641 -2 764 0 841 13
232 40 425 130 414 193 -3 20 -3 20 -41 1z"/>
<path d="M2270 910 c0 -6 35 -10 85 -10 50 0 85 4 85 10 0 6 -35 10 -85 10
-50 0 -85 -4 -85 -10z"/>
<path d="M2490 910 c0 -5 16 -10 35 -10 19 0 35 5 35 10 0 6 -16 10 -35 10
-19 0 -35 -4 -35 -10z"/>
<path d="M2040 810 c0 -6 50 -10 130 -10 80 0 130 4 130 10 0 6 -50 10 -130
10 -80 0 -130 -4 -130 -10z"/>
<path d="M2380 810 c0 -5 20 -10 45 -10 25 0 45 5 45 10 0 6 -20 10 -45 10
-25 0 -45 -4 -45 -10z"/>
<path d="M0 740 c0 -14 327 -14 335 0 4 7 -53 10 -164 10 -107 0 -171 -4 -171
-10z"/>
<path d="M390 740 c0 -6 28 -10 65 -10 37 0 65 4 65 10 0 6 -28 10 -65 10 -37
0 -65 -4 -65 -10z"/>
<path d="M590 740 c0 -6 28 -10 65 -10 37 0 65 4 65 10 0 6 -28 10 -65 10 -37
0 -65 -4 -65 -10z"/>
<path d="M855 740 c4 -6 90 -10 226 -10 139 0 219 4 219 10 0 6 -82 10 -226
10 -147 0 -223 -3 -219 -10z"/>
<path d="M1395 740 c4 -6 90 -10 225 -10 135 0 221 4 225 10 4 7 -73 10 -225
10 -152 0 -229 -3 -225 -10z"/>
<path d="M120 660 c0 -6 47 -10 120 -10 73 0 120 4 120 10 0 6 -47 10 -120 10
-73 0 -120 -4 -120 -10z"/>
<path d="M450 660 c0 -6 27 -10 60 -10 33 0 60 4 60 10 0 6 -27 10 -60 10 -33
0 -60 -4 -60 -10z"/>
<path d="M660 660 c0 -6 82 -10 225 -10 143 0 225 4 225 10 0 6 -82 10 -225
10 -143 0 -225 -4 -225 -10z"/>
<path d="M1220 660 c0 -6 83 -10 230 -10 147 0 230 4 230 10 0 6 -83 10 -230
10 -147 0 -230 -4 -230 -10z"/>
<path d="M1830 660 c0 -6 35 -10 85 -10 50 0 85 4 85 10 0 6 -35 10 -85 10
-50 0 -85 -4 -85 -10z"/>
</g>
</svg>
