<?xml version="1.0" standalone="no"?>
<!DOCTYPE svg PUBLIC "-//W3C//DTD SVG 20010904//EN"
 "http://www.w3.org/TR/2001/REC-SVG-20010904/DTD/svg10.dtd">
<svg version="1.0" xmlns="http://www.w3.org/2000/svg"
 width="245.000000pt" height="206.000000pt" viewBox="0 0 245.000000 206.000000"
 preserveAspectRatio="xMidYMid meet">

<g transform="translate(0.000000,206.000000) scale(0.100000,-0.100000)"
fill="#000000" stroke="none">
<path d="M734 2036 c-58 -27 -88 -63 -105 -129 -16 -59 -1 -114 47 -167 100
-111 287 -69 329 73 23 76 3 140 -59 195 -63 55 -133 65 -212 28z"/>
<path d="M554 1645 c-25 -15 -49 -40 -59 -62 -36 -76 -28 -258 15 -343 60
-117 165 -199 363 -285 171 -74 219 -96 215 -100 -2 -2 -40 -10 -85 -19 l-82
-15 -57 34 c-83 50 -260 117 -315 118 -25 1 -58 -4 -72 -12 -34 -18 -71 -92
-62 -122 7 -21 6 -22 -66 -15 -41 4 -132 16 -203 27 -71 10 -130 19 -131 19
-2 0 -5 -11 -7 -25 -4 -20 0 -25 21 -29 62 -13 224 -36 324 -46 92 -9 117 -16
170 -44 34 -19 98 -44 142 -56 99 -27 147 -51 175 -87 46 -59 3 -122 -313
-466 -55 -59 -97 -110 -95 -113 7 -6 131 59 292 154 158 94 267 196 317 297
56 115 50 187 -23 270 -22 25 -39 47 -37 49 2 2 45 12 94 24 l90 20 370 -186
370 -187 3 -36 c4 -46 38 -62 48 -23 3 13 9 24 13 24 3 0 41 -18 84 -41 l77
-40 -40 -76 c-22 -42 -40 -79 -40 -83 0 -6 64 -40 75 -40 6 0 187 361 183 364
-31 23 -55 36 -65 36 -7 0 -30 -33 -50 -74 l-37 -74 -98 49 -98 49 0 226 c0
180 3 224 13 217 6 -6 70 -56 140 -112 70 -55 130 -101 133 -101 4 0 191 116
203 126 2 2 -53 151 -122 331 -69 180 -138 361 -152 401 -32 85 -28 83 -167
48 -213 -54 -309 -132 -499 -402 -157 -225 -194 -265 -274 -305 l-64 -31 -67
31 c-36 17 -73 31 -81 31 -23 0 -164 99 -232 164 -113 109 -140 198 -102 346
33 132 29 180 -20 205 -40 21 -68 19 -115 -10z m1692 -420 c74 -192 134 -354
134 -360 -1 -11 -115 -85 -132 -85 -6 0 -95 67 -198 150 -176 141 -230 173
-230 136 0 -8 20 -32 45 -54 l45 -40 0 -231 c0 -127 -3 -231 -7 -230 -5 0
-158 76 -342 168 l-334 168 49 23 c69 34 123 93 253 281 144 207 188 258 265
314 69 49 88 58 196 91 126 39 104 69 256 -331z"/>
</g>
</svg>
