<?xml version="1.0" standalone="no"?>
<!DOCTYPE svg PUBLIC "-//W3C//DTD SVG 20010904//EN"
 "http://www.w3.org/TR/2001/REC-SVG-20010904/DTD/svg10.dtd">
<svg version="1.0" xmlns="http://www.w3.org/2000/svg"
 width="467.000000pt" height="519.000000pt" viewBox="0 0 467.000000 519.000000"
 preserveAspectRatio="xMidYMid meet">

<g transform="translate(0.000000,519.000000) scale(0.100000,-0.100000)"
fill="#000000" stroke="none">
<path d="M2743 4434 c-38 -19 -67 -75 -58 -111 3 -15 33 -67 66 -117 88 -133
142 -246 147 -309 5 -60 -25 -161 -87 -292 -33 -69 -53 -95 -147 -186 -60 -58
-136 -124 -169 -146 -82 -55 -273 -155 -368 -192 l-78 -31 -57 40 c-176 127
-321 246 -327 272 -3 15 -13 32 -21 39 -18 14 -18 76 0 150 13 56 19 68 83
163 88 132 62 347 -57 466 -56 56 -95 74 -165 74 -148 2 -244 -128 -233 -313
9 -139 64 -235 176 -309 64 -42 125 -117 146 -179 16 -48 11 -113 -9 -113 -26
0 -65 -60 -65 -99 0 -52 18 -72 168 -189 169 -132 268 -200 310 -212 44 -12
111 2 207 42 106 45 99 45 135 -9 18 -26 55 -78 82 -115 52 -71 105 -188 135
-298 24 -90 22 -300 -5 -557 -22 -199 -23 -205 -69 -310 -26 -60 -90 -193
-141 -298 -101 -205 -111 -244 -74 -294 49 -68 142 -76 195 -18 39 43 212 340
298 512 l69 140 33 193 c17 105 34 192 37 192 3 0 48 -71 99 -157 l93 -157 -6
-66 c-6 -70 -49 -289 -90 -461 -19 -83 -23 -114 -16 -141 18 -62 84 -104 146
-92 63 12 88 48 133 190 93 298 141 498 141 593 0 57 -7 74 -146 353 -81 161
-153 314 -160 339 -8 26 -34 89 -57 140 -24 52 -51 125 -61 163 -25 99 -73
347 -87 446 l-12 86 70 139 c90 179 138 302 159 408 15 78 15 89 0 158 -31
139 -205 442 -272 474 -40 19 -51 19 -91 -1z m-1263 -231 c0 -15 -2 -16 -10
-3 -8 12 -10 8 -11 -15 -1 -29 -1 -29 -8 -5 -4 15 -3 28 3 32 18 12 26 9 26
-9z m17 -5 c-3 -8 -6 -5 -6 6 -1 11 2 17 5 13 3 -3 4 -12 1 -19z m53 11 c0 -5
-9 -9 -20 -9 -11 0 -20 4 -20 8 0 4 9 8 20 9 11 1 20 -2 20 -8z m-110 -20 c0
-5 -9 -9 -20 -9 -17 0 -19 2 -8 14 13 14 28 12 28 -5z m127 -1 c-3 -8 -6 -5
-6 6 -1 11 2 17 5 13 3 -3 4 -12 1 -19z m-38 -20 c-1 -15 -3 -17 -6 -7 -3 11
-13 15 -31 13 l-27 -4 25 9 c38 14 40 13 39 -11z m68 -20 c-3 -7 -5 -2 -5 12
0 14 2 19 5 13 2 -7 2 -19 0 -25z m-149 0 c34 6 26 -3 -10 -12 -25 -6 -28 -4
-27 16 1 15 3 17 6 7 3 -11 12 -15 31 -11z m125 15 c-7 -2 -19 -2 -25 0 -7 3
-2 5 12 5 14 0 19 -2 13 -5z m-184 -10 c-11 -2 -15 -11 -12 -22 3 -13 12 -17
31 -14 16 3 22 1 16 -4 -6 -4 -14 -15 -17 -23 -4 -12 -6 -12 -6 2 -1 11 -6 15
-16 12 -9 -4 -15 0 -15 9 0 9 -3 22 -6 31 -5 12 0 16 17 15 16 -1 18 -3 8 -6z
m129 -17 c15 2 19 1 10 -2 -9 -3 -16 -11 -14 -17 1 -7 1 -9 -1 -4 -3 4 -11 7
-19 7 -8 0 -14 9 -13 23 1 14 3 16 6 6 3 -11 13 -15 31 -13z m120 17 c-11 -3
-15 -11 -12 -21 5 -15 4 -15 -5 -2 -16 23 -13 30 12 29 16 -1 17 -3 5 -6z m32
-36 c12 -4 12 -6 -2 -6 -10 -1 -16 -7 -14 -13 1 -7 1 -10 -1 -5 -3 4 -12 7
-21 8 -11 0 -12 2 -4 6 6 2 12 12 12 21 0 11 3 13 8 6 4 -6 14 -14 22 -17z
m-182 -8 c11 0 12 -2 5 -6 -7 -2 -13 -12 -14 -21 0 -11 -2 -12 -6 -4 -2 6 -12
12 -21 13 -11 0 -12 2 -4 6 6 2 12 12 13 21 0 11 2 12 6 5 2 -7 12 -13 21 -14z
m110 14 c-9 -2 -16 -10 -14 -16 1 -7 1 -9 -1 -4 -3 4 -12 7 -21 7 -15 0 -15 2
-2 10 8 5 24 9 35 9 16 -1 17 -2 3 -6z m-40 -24 c11 0 12 -2 5 -6 -7 -2 -13
-12 -14 -21 0 -11 -2 -12 -6 -4 -2 6 -12 12 -21 13 -11 0 -12 2 -4 6 6 2 12
12 13 21 0 11 2 12 6 5 2 -7 12 -13 21 -14z m-180 -10 c11 0 12 -2 5 -6 -7 -2
-13 -12 -14 -21 0 -11 -2 -12 -6 -4 -2 6 -12 12 -21 13 -11 0 -12 2 -4 6 6 2
12 12 13 21 0 11 2 12 6 5 2 -7 12 -13 21 -14z m250 1 c15 0 15 -2 2 -10 -8
-5 -24 -9 -35 -9 -11 0 -14 3 -7 6 6 2 12 12 13 21 0 11 2 12 6 5 2 -7 12 -13
21 -13z m-182 -10 c8 0 14 -9 13 -22 0 -22 -1 -22 -9 -3 l-9 20 -1 -20 c-1
-11 -4 -14 -7 -7 -2 6 -12 12 -21 13 -11 0 -12 2 -4 6 6 2 12 12 13 21 0 11 2
12 6 5 2 -7 11 -13 19 -13z m246 -4 c7 4 8 2 4 -4 -4 -7 -17 -12 -29 -11 -12
0 -16 3 -9 6 6 2 13 12 13 21 1 15 2 15 6 -1 2 -9 9 -14 15 -11z m-176 -6 c8
0 14 -9 13 -22 -1 -15 -3 -17 -6 -7 -3 11 -13 15 -31 13 -15 -2 -19 -1 -10 2
9 3 16 11 14 17 -1 7 -1 9 1 5 3 -5 11 -8 19 -8z m-116 -32 c0 -5 -10 -7 -22
-7 -17 1 -18 3 -6 6 11 3 15 11 12 21 -5 15 -4 15 5 2 6 -8 11 -18 11 -22z
m-70 12 c0 -5 -5 -10 -11 -10 -5 0 -7 5 -4 10 3 6 8 10 11 10 2 0 4 -4 4 -10z
m17 -22 c-3 -7 -5 -2 -5 12 0 14 2 19 5 13 2 -7 2 -19 0 -25z m252 10 c-1 -15
-3 -17 -6 -7 -3 11 -13 15 -31 13 l-27 -4 25 9 c38 14 40 13 39 -11z m121 -10
c0 -5 -7 -8 -15 -8 -9 0 -12 -6 -9 -17 5 -15 4 -16 -5 -3 -15 21 -14 30 4 30
9 0 12 6 9 18 -5 14 -4 15 5 2 6 -8 11 -18 11 -22z m-303 -10 c-3 -7 -5 -2 -5
12 0 14 2 19 5 13 2 -7 2 -19 0 -25z m252 10 c-1 -15 -3 -17 -6 -7 -3 11 -13
15 -31 13 l-27 -4 25 9 c38 14 40 13 39 -11z m-182 -20 c-3 -7 -5 -2 -5 12 0
14 2 19 5 13 2 -7 2 -19 0 -25z m-24 15 c-7 -2 -19 -2 -25 0 -7 3 -2 5 12 5
14 0 19 -2 13 -5z m94 -25 c-3 -7 -5 -2 -5 12 0 14 2 19 5 13 2 -7 2 -19 0
-25z m-149 0 c34 6 26 -3 -10 -12 -25 -6 -28 -4 -27 16 1 15 3 17 6 7 3 -11
12 -15 31 -11z m125 15 c-7 -2 -19 -2 -25 0 -7 3 -2 5 12 5 14 0 19 -2 13 -5z
m94 -25 c-3 -7 -5 -2 -5 12 0 14 2 19 5 13 2 -7 2 -19 0 -25z m-267 18 c0 -2
-11 -6 -25 -8 -13 -3 -22 -1 -19 3 5 9 44 13 44 5z m118 -18 c34 6 26 -3 -10
-12 -25 -6 -28 -4 -27 16 1 15 3 17 6 7 3 -11 12 -15 31 -11z m120 15 c-11 -3
-15 -11 -12 -21 5 -15 4 -15 -5 -2 -16 23 -13 30 12 29 16 -1 17 -3 5 -6z m70
-10 c-11 -3 -15 -11 -12 -21 5 -15 4 -15 -5 -2 -16 23 -13 30 12 29 16 -1 17
-3 5 -6z m-40 -24 c11 0 12 -2 5 -6 -7 -2 -13 -12 -14 -21 0 -11 -2 -12 -6 -4
-2 6 -12 12 -21 13 -11 0 -12 2 -4 6 6 2 12 12 13 21 0 11 2 12 6 5 2 -7 12
-13 21 -14z m109 1 c1 -11 -2 -20 -8 -20 -5 0 -9 2 -9 4 0 2 -3 11 -6 20 -4
10 -1 16 8 16 7 0 14 -9 15 -20z m-174 3 c-7 -2 -13 -12 -14 -21 0 -11 -2 -12
-6 -4 -2 6 -12 12 -21 12 -15 0 -15 2 -2 10 8 5 24 9 35 9 11 0 14 -3 8 -6z
m135 -13 c15 0 15 -2 2 -10 -8 -5 -24 -9 -35 -9 -11 0 -14 3 -7 6 6 2 12 12
13 21 0 11 2 12 6 5 2 -7 12 -13 21 -13z m-315 3 c-7 -2 -13 -12 -14 -21 0
-15 -1 -15 -7 -1 -5 12 -13 14 -27 8 l-20 -8 20 0 c17 -1 17 -3 5 -11 -22 -14
-30 -12 -30 9 0 12 8 21 23 24 31 6 64 6 50 0z m135 -14 c11 0 12 -2 5 -6 -7
-2 -13 -12 -14 -21 0 -11 -2 -12 -6 -4 -2 6 -12 12 -21 13 -11 0 -12 2 -4 6 6
2 12 12 13 21 0 11 2 12 6 5 2 -7 12 -13 21 -14z m-65 4 c-7 -2 -13 -12 -14
-21 0 -11 -2 -12 -6 -4 -2 6 -12 12 -21 12 -15 0 -15 2 -2 10 8 5 24 9 35 9
11 0 14 -3 8 -6z m135 -13 c15 0 15 -2 2 -10 -8 -5 -24 -9 -35 -9 -11 0 -14 3
-7 6 6 2 12 12 13 21 0 11 2 12 6 5 2 -7 12 -13 21 -13z m-188 -22 c0 -5 -10
-7 -22 -7 -17 1 -18 3 -6 6 11 3 15 11 12 21 -5 15 -4 15 5 2 6 -8 11 -18 11
-22z m256 9 c10 4 14 -2 13 -18 -1 -15 -3 -18 -6 -8 -3 11 -12 15 -31 12 -15
-1 -21 0 -14 3 6 3 13 13 13 22 1 16 2 16 6 0 2 -10 10 -15 19 -11z m-180 -7
c8 0 14 -9 13 -22 -1 -15 -3 -17 -6 -7 -3 11 -13 15 -31 13 -15 -2 -19 -1 -10
2 9 3 16 11 14 17 -1 7 -1 9 1 5 3 -5 11 -8 19 -8z m250 -3 c10 4 14 -2 13
-18 -1 -15 -3 -18 -6 -8 -3 11 -12 15 -31 12 -15 -1 -21 0 -14 3 6 3 13 13 13
22 1 16 2 16 6 0 2 -10 10 -15 19 -11z m-309 -19 c-3 -7 -5 -2 -5 12 0 14 2
19 5 13 2 -7 2 -19 0 -25z m129 12 c8 0 14 -9 13 -22 -1 -15 -3 -17 -6 -7 -3
11 -13 15 -31 13 -15 -2 -19 -1 -10 2 9 3 16 11 14 17 -1 7 -1 9 1 5 3 -5 11
-8 19 -8z m-186 -22 c0 -5 -6 -8 -14 -8 -9 0 -12 -7 -9 -18 3 -14 11 -18 31
-14 34 6 26 -3 -10 -12 -22 -5 -27 -2 -37 24 -9 27 -8 30 9 30 14 0 18 5 14
18 -5 14 -4 15 5 2 6 -8 11 -18 11 -22z m17 -20 c-3 -7 -5 -2 -5 12 0 14 2 19
5 13 2 -7 2 -19 0 -25z m252 10 c-1 -15 -3 -17 -6 -7 -3 11 -13 15 -31 13
l-27 -4 25 9 c38 14 40 13 39 -11z m-182 -20 c-3 -7 -5 -2 -5 12 0 14 2 19 5
13 2 -7 2 -19 0 -25z m252 10 c-1 -15 -3 -17 -6 -7 -3 11 -13 15 -31 13 l-27
-4 25 9 c38 14 40 13 39 -11z m-276 5 c-7 -2 -19 -2 -25 0 -7 3 -2 5 12 5 14
0 19 -2 13 -5z m125 -15 c34 6 26 -3 -10 -12 -25 -6 -28 -4 -27 16 1 15 3 17
6 7 3 -11 12 -15 31 -11z m-55 5 c-7 -2 -19 -2 -25 0 -7 3 -2 5 12 5 14 0 19
-2 13 -5z m125 -17 c15 2 19 1 10 -2 -9 -3 -16 -11 -14 -17 1 -7 1 -9 -1 -4
-3 4 -11 7 -19 7 -8 0 -14 9 -13 23 1 14 3 16 6 6 3 -11 13 -15 31 -13z m115
18 c-7 -3 -9 -13 -6 -22 4 -15 3 -15 -6 -2 -15 22 -14 30 7 29 9 0 12 -3 5 -5z
m-295 -27 c16 3 22 1 16 -4 -6 -4 -14 -15 -17 -23 -4 -12 -6 -12 -6 2 -1 11
-6 15 -16 12 -11 -5 -15 0 -14 17 1 15 3 18 6 8 3 -11 12 -15 31 -12z m250 0
c23 3 24 2 7 -6 -33 -16 -45 -12 -44 12 1 14 3 16 6 6 3 -11 12 -15 31 -12z
m-100 -18 c11 0 12 -2 5 -6 -7 -2 -13 -12 -14 -21 0 -11 -2 -12 -6 -4 -2 6
-12 12 -21 13 -11 0 -12 2 -4 6 6 2 12 12 13 21 0 11 2 12 6 5 2 -7 12 -13 21
-14z m-65 4 c-7 -2 -13 -12 -14 -21 0 -11 -2 -12 -6 -4 -2 6 -12 12 -21 12
-15 0 -15 2 -2 10 8 5 24 9 35 9 11 0 14 -3 8 -6z m146 -10 c12 3 21 2 21 -3
0 -9 -70 -24 -78 -16 -3 3 0 6 6 6 7 0 12 8 12 18 0 13 2 14 9 3 5 -8 18 -12
30 -8z m-191 -14 c11 0 12 -2 5 -6 -7 -2 -13 -12 -14 -21 0 -11 -2 -12 -6 -4
-2 6 -12 12 -21 13 -11 0 -12 2 -4 6 6 2 12 12 13 21 0 11 2 12 6 5 2 -7 12
-13 21 -14z m242 -11 c0 -5 -10 -8 -22 -7 -13 0 -17 3 -10 6 6 2 12 12 12 21
0 15 2 15 10 2 5 -8 10 -18 10 -22z m-307 15 c-7 -2 -13 -12 -14 -21 0 -11 -2
-12 -6 -4 -2 6 -17 12 -31 13 l-27 1 25 8 c27 9 73 12 53 3z m133 -13 c8 0 14
-9 13 -22 -1 -15 -3 -17 -6 -7 -3 11 -12 15 -31 12 -15 -1 -21 0 -14 3 6 3 12
13 13 22 0 11 2 12 6 5 2 -7 11 -13 19 -13z m70 -10 c8 0 14 -9 13 -22 -1 -15
-3 -17 -6 -7 -3 11 -12 15 -31 12 -15 -1 -21 0 -14 3 6 3 12 13 13 22 0 11 2
12 6 5 2 -7 11 -13 19 -13z m-186 -22 c0 -5 -10 -7 -22 -7 -17 1 -18 3 -6 6
11 3 15 11 12 21 -5 15 -4 15 5 2 6 -8 11 -18 11 -22z m-50 2 c0 -11 -2 -20
-4 -20 -2 0 -6 9 -9 20 -3 11 -1 20 4 20 5 0 9 -9 9 -20z m120 -12 c0 -5 -10
-7 -22 -7 -17 1 -18 3 -6 6 11 3 15 11 12 21 -5 15 -4 15 5 2 6 -8 11 -18 11
-22z m-53 -10 c-3 -7 -5 -2 -5 12 0 14 2 19 5 13 2 -7 2 -19 0 -25z m267 24
c-6 -4 -14 -14 -17 -22 -5 -13 -6 -12 -6 1 -1 12 -9 15 -28 13 -28 -4 -28 -4
-3 5 31 11 69 13 54 3z m-197 -34 c-3 -7 -5 -2 -5 12 0 14 2 19 5 13 2 -7 2
-19 0 -25z m70 -10 c-3 -7 -5 -2 -5 12 0 14 2 19 5 13 2 -7 2 -19 0 -25z
m-149 0 c34 6 26 -3 -10 -12 -25 -6 -28 -4 -27 16 1 15 3 17 6 7 3 -11 12 -15
31 -11z m125 15 c-7 -2 -19 -2 -25 0 -7 3 -2 5 12 5 14 0 19 -2 13 -5z m115
-16 c16 6 16 6 0 -10 -23 -23 -28 -21 -27 11 1 15 3 20 6 10 3 -11 10 -15 21
-11z m-170 -9 c34 6 26 -3 -10 -12 -25 -6 -28 -4 -27 16 1 15 3 17 6 7 3 -11
12 -15 31 -11z m125 15 c-7 -2 -19 -2 -25 0 -7 3 -2 5 12 5 14 0 19 -2 13 -5z
m-58 -26 c18 4 24 0 28 -18 4 -21 5 -20 6 6 2 26 3 27 11 10 l9 -20 0 20 c1
17 3 17 11 5 14 -22 13 -26 -15 -38 -34 -15 -33 -16 -38 11 -3 18 -5 16 -7 -8
-2 -30 -2 -30 -10 -5 l-8 25 -2 -25 c-1 -23 -2 -23 -10 -5 -5 11 -8 31 -8 45
0 14 2 18 5 9 3 -11 12 -15 28 -12z m-56 -22 c1 17 3 17 11 5 16 -25 12 -39
-10 -33 -12 3 -20 13 -19 27 0 20 1 20 9 1 l9 -20 0 20z m-30 -12 c0 -11 -3
-13 -6 -5 -2 6 -9 10 -13 7 -5 -3 -11 -1 -15 5 -3 5 3 10 14 10 14 0 21 -6 20
-17z m136 -60 c-4 -10 -9 -33 -12 -50 -6 -37 -19 -43 -28 -14 -3 10 -14 26
-25 36 -29 26 -25 33 18 38 20 2 41 4 46 5 4 1 5 -6 1 -15z"/>
<path d="M2330 3785 c-202 -65 -227 -345 -40 -440 61 -31 155 -34 215 -6 46
20 101 79 121 127 19 44 18 136 -2 182 -46 111 -180 174 -294 137z"/>
<path d="M1167 132 c-10 -10 -17 -28 -17 -39 0 -23 29 -53 53 -53 18 0 47 26
47 43 0 6 -7 1 -16 -11 -26 -37 -74 -23 -74 23 0 27 18 45 45 44 19 0 19 -1
-2 -9 -15 -6 -23 -18 -23 -34 0 -29 17 -43 33 -27 9 9 8 11 -5 6 -15 -6 -18
-2 -18 20 0 20 4 26 15 21 8 -3 15 0 15 7 0 7 7 3 15 -7 13 -17 15 -17 15 -3
0 17 -28 37 -53 37 -8 0 -21 -8 -30 -18z"/>
<path d="M1316 135 c-32 -32 -12 -95 29 -95 14 0 29 8 35 20 6 11 7 20 1 20
-5 0 -11 -7 -15 -15 -8 -22 -33 -18 -47 6 -8 16 -8 28 0 45 12 27 30 31 50 12
11 -11 13 -10 9 2 -6 21 -43 24 -62 5z"/>
<path d="M1567 143 c-17 -16 -5 -42 23 -52 17 -5 30 -15 30 -21 0 -18 -29 -23
-47 -9 -14 12 -16 12 -11 -1 3 -9 17 -15 34 -15 23 0 30 5 32 23 3 18 -3 25
-27 33 -17 6 -31 15 -31 20 0 16 29 22 45 9 9 -7 15 -8 15 -2 0 17 -49 30 -63
15z"/>
<path d="M1831 93 c0 -49 2 -54 10 -33 l10 25 19 -25 c21 -27 26 -21 9 11 -7
15 -7 24 2 35 7 9 8 14 1 14 -6 0 -14 -4 -17 -10 -11 -17 -24 -11 -20 10 2 11
0 22 -6 25 -5 4 -9 -18 -8 -52z"/>
<path d="M1911 93 c1 -32 4 -46 6 -31 3 20 11 28 31 30 21 2 27 8 27 28 0 21
-5 26 -32 28 l-33 3 1 -58z m54 27 c0 -8 -10 -16 -22 -18 -18 -3 -23 2 -23 18
0 16 5 21 23 18 12 -2 22 -10 22 -18z"/>
<path d="M2003 95 c0 -45 1 -52 6 -26 9 49 29 51 34 4 l4 -38 1 44 c2 38 0 43
-17 38 -15 -3 -21 1 -24 17 -2 11 -4 -6 -4 -39z"/>
<path d="M2917 143 c-4 -3 -7 -13 -7 -22 1 -14 2 -13 11 2 13 23 29 22 29 -3
0 -11 -5 -20 -12 -20 -6 0 -3 -6 8 -14 15 -12 16 -17 7 -27 -10 -10 -16 -9
-29 2 -15 12 -17 12 -12 -1 2 -8 16 -15 29 -15 21 0 24 5 25 40 0 22 -4 46 -9
53 -10 13 -30 16 -40 5z"/>
<path d="M2994 136 c-3 -7 -4 -17 -3 -22 1 -5 -1 -17 -6 -27 -11 -27 19 -56
43 -41 18 12 24 69 8 92 -11 16 -35 15 -42 -2z m36 -11 c0 -8 -7 -15 -15 -15
-16 0 -20 12 -8 23 11 12 23 8 23 -8z m3 -38 c3 -8 1 -20 -4 -28 -11 -19 -34
3 -26 25 8 20 23 21 30 3z"/>
<path d="M3098 145 c-4 -4 -4 -20 -1 -36 4 -24 2 -29 -13 -29 -14 0 -15 3 -6
12 7 7 12 17 12 23 -1 11 -30 -25 -30 -37 0 -4 9 -8 19 -8 11 0 22 -8 24 -17
4 -17 5 -17 6 0 0 9 7 17 14 17 9 0 9 2 0 8 -6 4 -13 22 -15 41 -2 18 -6 30
-10 26z"/>
<path d="M3162 135 c-7 -8 -8 -15 -3 -15 5 0 12 -19 14 -42 3 -37 4 -35 5 15
1 31 1 57 0 57 -2 -1 -9 -7 -16 -15z"/>
<path d="M3240 135 c-8 -9 -9 -15 -2 -15 6 0 13 -19 15 -42 3 -37 4 -35 5 15
1 31 0 57 -2 57 -2 0 -9 -7 -16 -15z"/>
<path d="M3307 143 c-14 -13 -7 -93 8 -99 23 -9 45 15 45 50 0 43 -31 72 -53
49z m38 -24 c9 -28 -3 -71 -18 -66 -13 4 -22 51 -13 73 8 20 24 17 31 -7z"/>
<path d="M3384 137 c-3 -8 -4 -18 -3 -23 1 -5 -1 -17 -6 -27 -8 -19 10 -47 30
-47 25 0 36 26 27 66 -8 40 -37 59 -48 31z m36 -18 c0 -5 -7 -9 -15 -9 -15 0
-20 12 -9 23 8 8 24 -1 24 -14z m3 -31 c6 -19 -3 -38 -18 -38 -7 0 -15 6 -18
13 -6 18 3 37 18 37 7 0 15 -6 18 -12z"/>
<path d="M3462 138 c-7 -7 -12 -17 -12 -22 0 -6 7 -3 15 8 14 19 35 14 35 -8
0 -8 -11 -21 -25 -30 -38 -25 -32 -46 13 -45 30 2 32 3 10 6 -34 5 -35 10 -3
39 21 20 24 27 15 44 -12 23 -30 26 -48 8z"/>
<path d="M1649 128 c-2 -29 3 -74 10 -81 4 -4 6 7 3 24 -3 17 0 34 6 38 6 4 5
11 -4 19 -11 10 -14 10 -15 0z"/>
<path d="M2148 127 c-8 -23 7 -80 22 -85 12 -4 13 -2 3 9 -15 15 -17 56 -4 61
5 2 3 8 -4 15 -10 9 -14 9 -17 0z"/>
<path d="M1405 110 c-5 -9 -1 -10 13 -6 11 4 23 2 27 -4 3 -5 0 -10 -7 -10
-10 0 -10 -2 1 -9 16 -11 6 -31 -16 -31 -9 0 -13 6 -9 15 3 8 1 15 -5 15 -6 0
-9 -8 -7 -17 2 -12 13 -19 34 -20 30 -1 30 0 25 35 -5 28 -12 38 -28 40 -11 2
-24 -2 -28 -8z"/>
<path d="M1481 76 l2 -41 6 34 c8 43 28 51 37 14 10 -47 13 -50 11 -8 -2 36
-5 40 -29 41 -26 1 -28 -1 -27 -40z"/>
<path d="M1690 105 c-26 -31 13 -82 44 -56 19 16 21 42 4 59 -16 16 -33 15
-48 -3z m44 -10 c7 -20 -3 -45 -19 -45 -16 0 -26 25 -19 45 4 8 12 15 19 15 7
0 15 -7 19 -15z"/>
<path d="M1772 108 c-16 -16 -15 -43 3 -58 16 -14 45 -7 45 11 0 8 -4 8 -15
-1 -18 -15 -35 -5 -35 20 0 26 18 34 37 18 14 -11 15 -11 11 2 -6 20 -30 24
-46 8z"/>
<path d="M2082 108 c-20 -20 -15 -56 9 -63 28 -9 41 6 37 41 -3 31 -26 42 -46
22z m33 -28 c0 -13 -6 -25 -12 -27 -16 -6 -27 21 -19 43 9 23 31 11 31 -16z"/>
<path d="M2190 105 c-26 -31 13 -82 44 -56 19 16 21 42 4 59 -16 16 -33 15
-48 -3z m44 -10 c7 -18 -2 -45 -15 -45 -5 0 -12 7 -15 15 -7 18 2 45 15 45 5
0 11 -7 15 -15z"/>
<path d="M2307 114 c-4 -4 -7 -20 -7 -36 0 -35 25 -47 48 -24 9 9 11 16 5 16
-6 0 -13 -5 -15 -12 -6 -17 -28 0 -28 22 0 25 20 36 32 19 8 -12 9 -11 5 1 -4
16 -29 25 -40 14z"/>
<path d="M2374 106 c-3 -8 -4 -25 -2 -38 2 -17 9 -23 28 -23 22 0 25 4 25 35
0 29 -4 36 -23 38 -13 2 -24 -3 -28 -12z m41 -26 c0 -13 -6 -25 -12 -27 -16
-6 -27 21 -19 43 9 23 31 11 31 -16z"/>
<path d="M2451 76 l2 -41 6 34 c9 49 31 52 32 4 l2 -38 6 34 c8 48 31 53 31 7
0 -20 5 -36 11 -36 6 0 9 16 7 38 -3 37 -3 37 -50 38 l-48 1 1 -41z"/>
<path d="M2697 114 c-4 -4 -7 -20 -7 -36 0 -35 25 -47 48 -24 9 9 11 16 5 16
-6 0 -13 -5 -15 -12 -6 -17 -28 0 -28 22 0 25 20 36 32 19 8 -12 9 -11 5 1 -4
16 -29 25 -40 14z"/>
<path d="M2767 113 c-12 -12 -7 -33 7 -33 17 0 31 -18 22 -27 -3 -3 -12 0 -21
7 -11 9 -15 9 -15 1 0 -20 31 -25 47 -8 15 15 14 17 -10 28 -27 12 -27 35 0
25 8 -3 11 -1 8 4 -7 11 -28 13 -38 3z"/>
<path d="M2831 61 c1 -32 4 -48 7 -36 4 11 16 20 27 20 16 0 20 7 20 35 0 31
-3 35 -27 36 -27 1 -28 0 -27 -55z m44 19 c0 -27 -22 -39 -31 -16 -8 22 3 49
19 43 6 -2 12 -14 12 -27z"/>
<path d="M2608 83 c7 -3 16 -2 19 1 4 3 -2 6 -13 5 -11 0 -14 -3 -6 -6z"/>
</g>
</svg>
